<svg xmlns="http://www.w3.org/2000/svg" xmlns:xlink="http://www.w3.org/1999/xlink" width="500" zoomAndPan="magnify" viewBox="0 0 375 374.999991" height="500" preserveAspectRatio="xMidYMid meet" version="1.0"><path fill="#0a0a0a" d="M 131.859375 284.980469 C 137.984375 305.960938 140.886719 327.667969 140.28125 349.457031 C 175.796875 317.078125 203.414062 276.199219 220.910156 231.46875 C 239.167969 184.828125 247.296875 132.929688 240.917969 83.046875 C 237.453125 56.015625 228.757812 27.957031 207.066406 9.976562 C 204.21875 7.609375 204.410156 0.355469 208.765625 3.964844 C 228.59375 20.410156 239.273438 44.699219 244.441406 69.460938 C 249.769531 94.980469 250.207031 121.765625 247.878906 147.660156 C 243.167969 200.175781 225.363281 251.359375 196.703125 295.597656 C 182.753906 317.132812 166.183594 336.863281 147.4375 354.339844 C 175.265625 353.800781 203.074219 357.800781 229.644531 366.222656 C 231.597656 366.84375 233.070312 368.894531 233.410156 370.875 C 233.652344 372.3125 233.101562 374.621094 231.113281 373.992188 C 201.425781 364.570312 170.324219 360.734375 139.238281 362.691406 C 138.867188 362.714844 138.5 362.636719 138.148438 362.484375 C 135.914062 363.191406 133.371094 358.253906 133.496094 356.65625 C 135.421875 332.703125 133.125 308.566406 126.386719 285.488281 C 124.789062 280.019531 130.59375 280.65625 131.859375 284.980469 Z M 131.859375 284.980469 " fill-opacity="1" fill-rule="nonzero"/></svg>