<svg xmlns="http://www.w3.org/2000/svg" xmlns:xlink="http://www.w3.org/1999/xlink" width="500" zoomAndPan="magnify" viewBox="0 0 375 374.999991" height="500" preserveAspectRatio="xMidYMid meet" version="1.0"><defs><clipPath id="6ed4713289"><path d="M 37.5 0 L 316 0 L 316 373 L 37.5 373 Z M 37.5 0 " clip-rule="nonzero"/></clipPath></defs><g clip-path="url(#6ed4713289)"><path fill="#000000" d="M 155.574219 364.203125 C 151.539062 370.925781 148.511719 372.3125 139.859375 371.109375 C 139.5 371.066406 139.078125 370.886719 138.796875 371.007812 C 129.964844 374.941406 120.933594 371.066406 112 371.550781 C 105.960938 371.871094 99.898438 370.605469 96.726562 364.082031 C 96.386719 363.398438 94.679688 363.097656 93.617188 363.078125 C 85.046875 362.957031 76.4375 363.378906 67.90625 362.777344 C 60.5 362.253906 53.15625 360.730469 45.847656 359.367188 C 43.78125 358.984375 41.675781 357.941406 40.027344 356.636719 C 38.785156 355.652344 37.5 353.683594 37.640625 352.300781 C 37.78125 350.914062 39.425781 349.109375 40.851562 348.546875 C 43.601562 347.421875 46.671875 347.160156 49.542969 346.296875 C 53.898438 344.992188 58.453125 343.988281 62.46875 341.941406 C 69.332031 338.449219 70.457031 333.632812 67.203125 326.765625 C 57.128906 305.550781 59.238281 284.59375 69.109375 264.039062 C 71.800781 258.4375 75.414062 253.21875 78.984375 248.101562 C 80.570312 245.832031 81.03125 243.804688 80.914062 241.136719 C 80.308594 228.269531 79.789062 215.382812 79.527344 202.496094 C 79.449219 198.558594 80.289062 194.625 80.792969 189.890625 C 79.667969 191.695312 78.925781 192.917969 78.101562 194.265625 C 76.316406 188.863281 79.75 174.171875 86.734375 157.351562 C 84.546875 158.613281 82.800781 159.640625 81.03125 160.640625 C 80.710938 160.421875 80.371094 160.199219 80.050781 159.980469 C 82.679688 155.664062 85.148438 151.25 87.996094 147.074219 C 89.160156 145.386719 89.582031 144.261719 88.597656 142.296875 C 87.273438 139.625 86.472656 136.714844 85.289062 133.503906 C 84.34375 134.769531 83.421875 136.011719 82.195312 137.660156 C 79.808594 127.5 81.59375 117.945312 84.203125 107.789062 C 82.078125 109.234375 80.613281 110.238281 78.164062 111.886719 C 79.566406 107.007812 80.710938 102.972656 81.894531 98.976562 C 82.136719 98.175781 82.417969 97.332031 82.898438 96.667969 C 88.320312 89.402344 88.277344 81.152344 88.296875 72.523438 C 88.320312 53.492188 92.191406 34.945312 97.730469 16.777344 C 100.339844 8.269531 104.757812 6.21875 113.207031 9.070312 C 122.898438 12.34375 131.46875 17.664062 139.699219 23.625 C 140.703125 24.347656 142.289062 24.808594 143.492188 24.648438 C 157.703125 22.820312 171.851562 22.78125 186.023438 25.269531 C 187.367188 25.511719 189.292969 24.847656 190.355469 23.90625 C 200.25 15.234375 211.089844 8.148438 222.972656 2.605469 C 224.15625 2.046875 225.460938 1.683594 226.726562 1.34375 C 231.523438 0.0585938 234.210938 1.140625 235.714844 5.878906 C 237.523438 11.601562 239.367188 17.460938 239.949219 23.363281 C 240.953125 33.78125 240.996094 44.277344 241.515625 54.738281 C 241.558594 55.699219 241.859375 56.886719 242.480469 57.546875 C 249.042969 64.492188 253.878906 72.460938 256.992188 81.996094 C 259.980469 81.453125 262.972656 80.914062 265.984375 80.390625 C 266.023438 80.53125 266.042969 80.671875 266.082031 80.792969 C 264.417969 81.292969 262.769531 82.054688 261.066406 82.238281 C 257.8125 82.578125 256.832031 83.964844 258.175781 86.996094 C 258.457031 87.597656 258.4375 88.339844 258.578125 89.164062 C 262.269531 89.164062 265.742188 89.164062 269.234375 89.164062 C 269.234375 89.261719 269.234375 89.363281 269.234375 89.464844 C 266.746094 89.644531 264.238281 89.664062 261.789062 90.085938 C 260.785156 90.265625 259.941406 91.332031 259.039062 91.992188 C 259.921875 92.515625 260.765625 93.378906 261.707031 93.496094 C 264.917969 93.941406 268.171875 94.121094 271.402344 94.683594 C 267.566406 94.683594 263.753906 94.683594 260.183594 94.683594 C 259.800781 100.441406 259.582031 105.984375 259.058594 111.503906 C 258.335938 119.171875 255.726562 126.296875 252.074219 133.023438 C 251.03125 134.929688 251.210938 136.09375 252.695312 137.71875 C 255.445312 140.730469 257.855469 144.042969 260.0625 147.957031 C 257.933594 147.355469 255.808594 146.773438 252.976562 145.96875 C 262.53125 156.046875 268.472656 167.046875 270.878906 180.453125 C 269.414062 179.792969 268.410156 179.332031 267.648438 178.96875 C 268.8125 184.109375 269.875 189.207031 271.160156 194.265625 C 271.460938 195.46875 272.425781 196.574219 273.226562 197.597656 C 279.109375 205.082031 283.484375 213.292969 285.972656 222.527344 C 286.355469 223.933594 287.558594 225.136719 288.402344 226.402344 C 303.273438 248.902344 314.933594 272.667969 315.898438 300.289062 C 316.5 317.792969 312.125 333.792969 299.480469 346.679688 C 290.710938 355.613281 279.75 360.347656 267.527344 362.214844 C 262.890625 362.917969 258.175781 363.097656 253.519531 363.761719 C 252.316406 363.921875 250.871094 364.703125 250.1875 365.667969 C 248.199219 368.4375 245.691406 369.902344 242.339844 370.164062 C 234.410156 370.808594 226.484375 371.851562 218.535156 372.050781 C 213.195312 372.171875 207.777344 371.449219 202.5 370.445312 C 200.53125 370.085938 198.445312 368.175781 197.300781 366.390625 C 196.035156 364.445312 194.8125 364.0625 192.683594 364.082031 C 180.363281 364.261719 168.058594 364.203125 155.574219 364.203125 Z M 119.589844 354.328125 C 119.949219 354.40625 120.332031 354.507812 120.691406 354.585938 C 120.492188 355.871094 120.332031 357.15625 120.109375 358.441406 C 118.90625 365.449219 121.894531 369.160156 128.921875 369.242188 C 130.105469 369.261719 131.308594 368.960938 132.515625 368.839844 C 135.644531 368.519531 137.230469 366.8125 137.390625 363.640625 C 137.550781 360.589844 137.851562 357.558594 138.09375 354.507812 C 138.515625 354.449219 138.917969 354.40625 139.335938 354.347656 C 139.71875 356.292969 140.28125 358.242188 140.460938 360.207031 C 140.664062 362.4375 140.5 364.683594 140.5 366.851562 C 148.730469 367.816406 150.457031 366.269531 150.417969 358.460938 C 150.417969 357.980469 150.4375 357.5 150.398438 357.015625 C 148.628906 339.132812 146.542969 321.285156 145.15625 303.363281 C 144.234375 291.238281 144.234375 279.03125 143.972656 266.867188 C 143.933594 265.324219 144.777344 263.757812 145.199219 262.210938 C 147.425781 278.371094 148.730469 294.269531 150.476562 310.105469 C 152.261719 326.125 154.492188 342.082031 156.558594 358.28125 C 169.324219 358.28125 182.046875 358.28125 195.09375 358.28125 C 195.695312 341.960938 196.71875 325.921875 196.738281 309.90625 C 196.757812 294.027344 195.777344 278.148438 195.234375 262.292969 C 196.558594 263.335938 197.320312 264.558594 197.503906 265.84375 C 198.527344 273.371094 200.132812 280.898438 200.210938 288.425781 C 200.433594 309.183594 199.96875 329.9375 199.832031 350.695312 C 199.808594 354.308594 199.75 357.941406 200.070312 361.53125 C 200.414062 365.367188 202.820312 367.132812 206.933594 367.054688 C 206.234375 362.214844 205.691406 357.476562 209.101562 352.539062 C 209.5625 356.675781 209.625 359.90625 210.367188 362.976562 C 211.449219 367.535156 213.617188 368.335938 218.816406 367.957031 C 223.351562 367.617188 223.011719 364.785156 222.890625 361.714844 C 222.8125 359.90625 222.8125 358.082031 222.953125 356.292969 C 223.011719 355.492188 223.472656 354.726562 223.753906 353.964844 C 224.175781 353.984375 224.617188 354.003906 225.039062 354.027344 C 225.421875 357.398438 225.742188 360.769531 226.203125 364.121094 C 226.34375 365.144531 226.765625 366.933594 227.167969 366.972656 C 230.476562 367.195312 234.03125 367.796875 237.019531 366.792969 C 238.605469 366.25 239.75 362.835938 240.089844 360.589844 C 240.433594 358.382812 239.488281 355.972656 239.128906 353.644531 C 239.488281 353.542969 239.871094 353.445312 240.230469 353.34375 C 243.523438 356.917969 243.5625 361.414062 242.398438 366.308594 C 247.054688 364.28125 248.378906 361.351562 247.316406 356.113281 C 245.46875 347.101562 237.804688 341.902344 227.828125 342.925781 C 225.320312 343.1875 222.789062 343.46875 220.28125 343.789062 C 217.792969 344.109375 215.304688 344.472656 212.816406 344.8125 C 221.546875 340.175781 230.660156 338.570312 240.351562 340.976562 C 240.574219 339.8125 240.753906 338.890625 240.953125 337.949219 C 243.164062 327.085938 244.789062 316.085938 247.757812 305.449219 C 250.40625 295.996094 254.480469 286.921875 258.09375 277.75 C 258.636719 276.382812 260.0625 275.378906 261.085938 274.214844 C 261.464844 274.476562 261.847656 274.738281 262.230469 275 C 261.648438 277.027344 261.164062 279.09375 260.441406 281.082031 C 253.78125 299.265625 249.242188 317.953125 247.074219 337.183594 C 246.773438 339.792969 246.273438 342.746094 247.15625 345.03125 C 248.78125 349.308594 251.332031 353.222656 253.839844 357.921875 C 256.410156 357.71875 259.882812 357.539062 263.332031 357.117188 C 282.359375 354.789062 297.152344 346.175781 305.320312 328.171875 C 310.78125 316.128906 311.242188 303.421875 309.496094 290.554688 C 306.847656 270.945312 298.535156 253.5 288.683594 236.640625 C 288.339844 236.058594 287.777344 235.636719 287.175781 234.953125 C 286.113281 237.742188 285.148438 240.25 284.1875 242.742188 C 284.285156 227.425781 278.585938 210.585938 270.457031 204.222656 C 265.78125 218.210938 263.492188 222.847656 259.640625 225.738281 C 267.910156 207.070312 270.980469 188.945312 256.808594 171.421875 C 258.636719 171.921875 260.464844 172.445312 262.609375 173.027344 C 259.359375 160.742188 252.554688 150.867188 243.84375 141.292969 C 246.753906 141.132812 248.441406 141.050781 250.148438 140.972656 C 250.289062 140.691406 250.449219 140.429688 250.589844 140.148438 C 248.703125 138.683594 246.835938 137.238281 245.089844 135.871094 C 252.375 124.8125 254.5625 113.089844 254.742188 100.464844 C 247.097656 99.839844 239.851562 99.238281 232.605469 98.65625 C 232.644531 98.15625 232.707031 97.652344 232.746094 97.152344 C 239.949219 97.773438 247.15625 98.375 254.722656 99.019531 C 254.421875 96.769531 254.160156 94.804688 253.878906 92.753906 C 246.535156 93.21875 239.53125 93.660156 232.546875 94.101562 C 232.523438 93.660156 232.503906 93.238281 232.484375 92.796875 C 239.410156 92.171875 246.332031 91.550781 253.679688 90.886719 C 253.257812 88.761719 252.835938 86.753906 252.453125 84.785156 C 245.410156 86.59375 238.90625 88.238281 232.382812 89.90625 C 232.242188 89.421875 232.125 88.941406 231.984375 88.460938 C 238.566406 86.554688 245.128906 84.664062 251.851562 82.71875 C 248.824219 72.542969 243.421875 63.851562 235.574219 57.023438 C 212.394531 36.972656 185.941406 25.8125 154.710938 28.339844 C 151.820312 28.582031 148.953125 28.902344 145.738281 29.203125 C 147.105469 30.667969 148.230469 31.632812 148.992188 32.816406 C 149.414062 33.460938 149.191406 34.523438 149.253906 35.386719 C 148.46875 35.367188 147.546875 35.628906 146.902344 35.304688 C 145.621094 34.664062 144.457031 33.761719 143.332031 32.878906 C 133.636719 25.269531 123.582031 18.246094 112.121094 13.488281 C 106.242188 11.039062 103.53125 12.082031 101.785156 18.222656 C 96.066406 38.238281 92.273438 58.550781 92.511719 79.507812 C 92.554688 82.699219 91.507812 86.03125 90.386719 89.101562 C 88.558594 94.101562 86.25 98.9375 83.941406 104.378906 C 86.269531 103.695312 87.738281 103.273438 89.402344 102.773438 C 88.578125 105.882812 87.816406 108.414062 87.253906 110.980469 C 86.710938 113.449219 86.269531 115.960938 85.992188 118.46875 C 85.730469 120.957031 85.730469 123.46875 85.609375 126.359375 C 86.734375 125.113281 87.535156 124.25 88.320312 123.386719 C 88.660156 123.40625 89 123.445312 89.363281 123.46875 C 89.019531 138.78125 96.769531 150.386719 106.160156 161.386719 C 99.9375 158.675781 95.585938 154.058594 91.46875 148.820312 C 90.324219 150.285156 89.320312 151.570312 87.976562 153.316406 C 89.84375 152.972656 91.167969 152.753906 93.054688 152.414062 C 92.332031 154.398438 91.671875 156.027344 91.148438 157.691406 C 88.921875 164.675781 86.710938 171.664062 84.585938 178.6875 C 84.304688 179.632812 84.382812 181.597656 84.484375 181.617188 C 87.574219 182.039062 85.828125 184.207031 85.851562 185.53125 C 85.871094 187.078125 85.367188 188.625 85.207031 190.167969 C 82.5 215.28125 84.042969 240.171875 90.847656 264.417969 C 97.933594 289.652344 106.203125 314.542969 114.050781 339.894531 C 120.671875 340.035156 127.816406 340.597656 133.4375 346.078125 C 132.152344 346.199219 130.96875 345.875 129.765625 345.675781 C 125.269531 344.933594 120.773438 343.6875 116.257812 343.628906 C 107.285156 343.507812 99.820312 351.457031 100.5 359.867188 C 100.683594 362.175781 100.941406 364.625 103.8125 365.628906 C 104.394531 355.308594 104.394531 355.308594 107.285156 353.585938 C 104.476562 366.589844 107.445312 368.15625 117.703125 367.695312 C 115.773438 362.757812 116.074219 358.242188 119.589844 354.328125 Z M 72.964844 336.644531 C 69.832031 342.363281 65.015625 345.613281 59.175781 347.363281 C 55.605469 348.425781 51.929688 349.085938 48.316406 350.011719 C 45.96875 350.613281 43.640625 351.296875 41.3125 351.957031 C 41.332031 352.5 41.375 353.042969 41.394531 353.605469 C 58.816406 361.433594 77.300781 358.644531 95.625 358.601562 C 96.386719 350.914062 99.859375 345.496094 106.140625 341.78125 C 106.785156 341.398438 107.125 339.714844 106.902344 338.769531 C 105.660156 333.25 104.457031 327.710938 102.789062 322.332031 C 97.390625 304.96875 91.648438 287.722656 86.371094 270.339844 C 84.484375 264.097656 83.542969 257.554688 81.957031 250.128906 C 79.085938 255.003906 76.476562 259.039062 74.269531 263.277344 C 67.265625 276.746094 63.773438 291.015625 66.101562 306.210938 C 68.769531 323.613281 77.601562 337.707031 90.507812 349.410156 C 91.488281 350.292969 92.292969 351.355469 93.496094 352.699219 C 88.480469 352.679688 88.097656 352.378906 72.964844 336.644531 Z M 211.851562 35.628906 C 216.730469 25.589844 221.828125 16.015625 230.355469 8.851562 C 227.75 13.546875 224.535156 17.863281 221.988281 22.558594 C 219.4375 27.257812 217.53125 32.316406 215.40625 37.113281 C 222.75 42.109375 229.574219 46.746094 236.578125 51.523438 C 237.863281 42.152344 236.960938 32.9375 235.554688 23.765625 C 234.734375 18.425781 233.449219 13.144531 232.144531 7.886719 C 231.382812 4.816406 229.59375 3.351562 226.324219 5.335938 C 220.5625 8.828125 214.542969 11.902344 208.980469 15.695312 C 203.804688 19.226562 199.109375 23.484375 193.847656 27.699219 C 200.292969 30.507812 205.890625 32.996094 211.851562 35.628906 Z M 211.851562 35.628906 " fill-opacity="1" fill-rule="nonzero"/></g><path fill="#ffffff" d="M 119.589844 354.328125 C 116.074219 358.222656 115.773438 362.757812 117.679688 367.675781 C 107.425781 368.136719 104.457031 366.570312 107.265625 353.5625 C 104.375 355.269531 104.375 355.269531 103.792969 365.609375 C 100.921875 364.605469 100.660156 362.15625 100.480469 359.847656 C 99.800781 351.457031 107.265625 343.507812 116.238281 343.609375 C 120.753906 343.667969 125.25 344.914062 129.742188 345.65625 C 130.949219 345.855469 132.132812 346.175781 133.417969 346.058594 C 127.796875 340.578125 120.671875 340.035156 114.027344 339.875 C 106.179688 314.523438 97.914062 289.632812 90.828125 264.398438 C 84.003906 240.152344 82.457031 215.242188 85.1875 190.148438 C 85.347656 188.605469 85.851562 187.058594 85.828125 185.511719 C 85.808594 184.1875 87.535156 182.019531 84.464844 181.597656 C 84.363281 181.578125 84.285156 179.609375 84.566406 178.667969 C 86.691406 171.640625 88.902344 164.65625 91.128906 157.671875 C 91.648438 156.003906 92.3125 154.378906 93.035156 152.390625 C 91.167969 152.734375 89.824219 152.953125 87.957031 153.296875 C 89.320312 151.550781 90.324219 150.246094 91.449219 148.800781 C 95.5625 154.039062 99.917969 158.675781 106.140625 161.363281 C 96.75 150.363281 89 138.761719 89.34375 123.445312 C 89 123.425781 88.660156 123.386719 88.296875 123.367188 C 87.496094 124.230469 86.710938 125.09375 85.589844 126.335938 C 85.710938 123.46875 85.710938 120.9375 85.96875 118.449219 C 86.230469 115.941406 86.691406 113.429688 87.234375 110.960938 C 87.796875 108.390625 88.558594 105.863281 89.382812 102.75 C 87.714844 103.234375 86.25 103.675781 83.921875 104.359375 C 86.25 98.9375 88.539062 94.101562 90.367188 89.082031 C 91.488281 86.03125 92.535156 82.699219 92.492188 79.488281 C 92.253906 58.53125 96.066406 38.21875 101.765625 18.203125 C 103.511719 12.0625 106.222656 11.019531 112.101562 13.46875 C 123.5625 18.222656 133.617188 25.269531 143.3125 32.855469 C 144.457031 33.742188 145.621094 34.644531 146.882812 35.285156 C 147.527344 35.605469 148.449219 35.367188 149.234375 35.367188 C 149.171875 34.503906 149.394531 33.441406 148.972656 32.796875 C 148.207031 31.613281 147.085938 30.648438 145.71875 29.183594 C 148.929688 28.863281 151.800781 28.5625 154.691406 28.320312 C 185.941406 25.8125 212.394531 36.972656 235.535156 57.046875 C 243.402344 63.871094 248.78125 72.542969 251.8125 82.738281 C 245.089844 84.6875 238.527344 86.574219 231.941406 88.480469 C 232.082031 88.960938 232.203125 89.441406 232.34375 89.925781 C 238.867188 88.257812 245.371094 86.59375 252.414062 84.804688 C 252.816406 86.773438 253.21875 88.78125 253.640625 90.910156 C 246.292969 91.570312 239.367188 92.191406 232.445312 92.816406 C 232.464844 93.257812 232.484375 93.679688 232.503906 94.121094 C 239.507812 93.679688 246.515625 93.238281 253.839844 92.773438 C 254.121094 94.824219 254.382812 96.789062 254.683594 99.039062 C 247.117188 98.394531 239.910156 97.773438 232.707031 97.171875 C 232.664062 97.671875 232.605469 98.175781 232.566406 98.675781 C 239.8125 99.277344 247.054688 99.859375 254.703125 100.484375 C 254.542969 113.128906 252.335938 124.851562 245.050781 135.890625 C 246.796875 137.257812 248.683594 138.722656 250.546875 140.167969 C 250.40625 140.449219 250.246094 140.710938 250.105469 140.992188 C 248.421875 141.070312 246.714844 141.171875 243.804688 141.3125 C 252.515625 150.886719 259.320312 160.761719 262.570312 173.046875 C 260.421875 172.445312 258.597656 171.945312 256.769531 171.441406 C 270.941406 188.964844 267.871094 207.089844 259.601562 225.757812 C 263.453125 222.890625 265.742188 218.230469 270.417969 204.242188 C 278.527344 210.605469 284.246094 227.445312 284.144531 242.761719 C 285.109375 240.25 286.054688 237.761719 287.136719 234.972656 C 287.738281 235.636719 288.300781 236.078125 288.640625 236.660156 C 298.496094 253.5 306.804688 270.964844 309.457031 290.574219 C 311.179688 303.441406 310.738281 316.148438 305.28125 328.191406 C 297.113281 346.199219 282.320312 354.808594 263.292969 357.136719 C 259.839844 357.558594 256.347656 357.71875 253.800781 357.941406 C 251.289062 353.242188 248.722656 349.328125 247.117188 345.054688 C 246.253906 342.746094 246.753906 339.8125 247.035156 337.203125 C 249.203125 317.953125 253.757812 299.265625 260.402344 281.101562 C 261.125 279.113281 261.605469 277.046875 262.1875 275.019531 C 261.808594 274.757812 261.425781 274.496094 261.046875 274.234375 C 260.023438 275.398438 258.597656 276.402344 258.054688 277.769531 C 254.441406 286.941406 250.367188 296.015625 247.71875 305.46875 C 244.746094 316.109375 243.121094 327.128906 240.914062 337.96875 C 240.734375 338.910156 240.554688 339.835938 240.3125 341 C 230.617188 338.589844 221.507812 340.195312 212.777344 344.832031 C 215.265625 344.492188 217.753906 344.109375 220.242188 343.808594 C 222.75 343.488281 225.257812 343.207031 227.789062 342.945312 C 237.761719 341.941406 245.429688 347.121094 247.277344 356.132812 C 248.339844 361.351562 247.035156 364.28125 242.359375 366.332031 C 243.523438 361.433594 243.484375 356.9375 240.191406 353.363281 C 239.832031 353.464844 239.449219 353.5625 239.089844 353.664062 C 239.46875 355.992188 240.394531 358.402344 240.050781 360.609375 C 239.710938 362.878906 238.566406 366.289062 236.980469 366.8125 C 233.988281 367.816406 230.4375 367.214844 227.125 366.992188 C 226.722656 366.972656 226.304688 365.167969 226.164062 364.144531 C 225.699219 360.789062 225.378906 357.417969 225 354.046875 C 224.578125 354.027344 224.136719 354.003906 223.714844 353.984375 C 223.433594 354.769531 222.972656 355.53125 222.910156 356.3125 C 222.769531 358.121094 222.769531 359.925781 222.851562 361.734375 C 222.972656 364.804688 223.3125 367.636719 218.777344 367.976562 C 213.578125 368.359375 211.410156 367.554688 210.328125 363 C 209.605469 359.925781 209.542969 356.695312 209.0625 352.558594 C 205.652344 357.476562 206.191406 362.234375 206.894531 367.074219 C 202.761719 367.171875 200.371094 365.386719 200.03125 361.554688 C 199.710938 357.960938 199.769531 354.328125 199.789062 350.714844 C 199.949219 329.957031 200.390625 309.203125 200.171875 288.445312 C 200.089844 280.898438 198.484375 273.371094 197.460938 265.863281 C 197.28125 264.558594 196.519531 263.355469 195.195312 262.3125 C 195.734375 278.191406 196.738281 294.066406 196.699219 309.925781 C 196.679688 325.945312 195.65625 341.980469 195.054688 358.300781 C 182.007812 358.300781 169.28125 358.300781 156.519531 358.300781 C 154.449219 342.121094 152.222656 326.144531 150.4375 310.125 C 148.671875 294.289062 147.386719 278.390625 145.15625 262.230469 C 144.738281 263.777344 143.894531 265.34375 143.933594 266.890625 C 144.195312 279.054688 144.195312 291.257812 145.117188 303.382812 C 146.503906 321.285156 148.570312 339.152344 150.355469 357.035156 C 150.398438 357.519531 150.375 358 150.375 358.480469 C 150.4375 366.289062 148.691406 367.835938 140.460938 366.871094 C 140.460938 364.703125 140.621094 362.457031 140.421875 360.226562 C 140.242188 358.261719 139.679688 356.3125 139.296875 354.367188 C 138.875 354.425781 138.476562 354.46875 138.054688 354.527344 C 137.8125 357.578125 137.511719 360.609375 137.351562 363.660156 C 137.191406 366.832031 135.605469 368.539062 132.472656 368.859375 C 131.269531 368.980469 130.085938 369.28125 128.882812 369.261719 C 121.855469 369.179688 118.867188 365.46875 120.070312 358.460938 C 120.289062 357.175781 120.453125 355.894531 120.652344 354.609375 C 120.332031 354.507812 119.949219 354.425781 119.589844 354.328125 Z M 150.980469 71.941406 C 149.191406 79.023438 151.378906 84.203125 156.71875 85.929688 C 162.097656 87.675781 167.335938 86.953125 171.871094 83.722656 C 176.265625 80.589844 178.433594 75.972656 173.519531 71.335938 C 171.089844 69.027344 167.976562 66.980469 164.808594 66.019531 C 157.5625 63.808594 151.078125 66.558594 145.15625 70.65625 C 143.652344 71.679688 142.429688 73.105469 141.082031 74.347656 C 141.324219 74.769531 141.566406 75.191406 141.828125 75.613281 C 144.757812 74.429688 147.726562 73.246094 150.980469 71.941406 Z M 103.550781 67.464844 C 104.054688 67.503906 104.574219 67.542969 105.078125 67.582031 C 111.300781 61.480469 116.496094 53.792969 127.054688 52.789062 C 125.1875 55.277344 123.761719 57.1875 122.035156 59.515625 C 129.34375 56.605469 133.980469 50.921875 129.984375 43.253906 C 125.769531 35.144531 120.492188 27.898438 113.367188 22.117188 C 108.769531 18.40625 106.582031 19.007812 105.039062 24.726562 C 102.246094 35.003906 100.742188 45.484375 101.40625 56.140625 C 101.625 59.9375 102.789062 63.667969 103.550781 67.464844 Z M 235.597656 68.347656 C 234.492188 64.53125 231.621094 62.886719 228.449219 62.023438 C 224.054688 60.820312 219.558594 60.476562 215.96875 64.191406 C 212.957031 67.324219 212.054688 71.035156 213.519531 75.171875 C 214.523438 78.023438 216.148438 80.410156 219.359375 80.972656 C 222.890625 81.574219 225.761719 80.25 227.789062 77.320312 C 230.175781 73.867188 230.636719 70.113281 228.429688 65.738281 C 230.175781 66.417969 231.261719 66.859375 232.363281 67.261719 C 233.449219 67.644531 234.53125 67.984375 235.597656 68.347656 Z M 215.765625 108.210938 C 214.742188 107.851562 213.71875 107.167969 212.695312 107.167969 C 208.039062 107.148438 205.128906 104.476562 204.648438 99.820312 C 204.246094 95.96875 205.027344 92.894531 208.359375 90.367188 C 211.230469 88.179688 210.546875 85.167969 207.054688 84.785156 C 202.980469 84.363281 198.785156 84.925781 194.671875 85.449219 C 193.769531 85.570312 192.304688 87.414062 192.464844 88.136719 C 192.707031 89.203125 194.070312 90.425781 195.195312 90.808594 C 201.074219 92.734375 203.160156 98.71875 199.328125 103.675781 C 195.636719 108.453125 191.078125 111.382812 184.316406 109.355469 C 185.199219 110.800781 186.203125 112.164062 187.464844 112.507812 C 194.410156 114.332031 198.6875 109.996094 202.640625 105.300781 C 208.359375 111.222656 210.46875 111.886719 215.765625 108.210938 Z M 116.515625 105.339844 C 131.25 103.375 145.980469 101.386719 160.734375 99.417969 C 160.671875 99.078125 160.632812 98.71875 160.574219 98.375 C 145.601562 98.878906 130.949219 101.328125 116.515625 105.339844 Z M 219.480469 141.414062 C 213.839844 143.039062 208.28125 145.027344 202.558594 146.210938 C 196.878906 147.394531 191.019531 147.753906 185.238281 148.5 C 197.363281 149.300781 209.242188 148.917969 219.480469 141.414062 Z M 161.917969 104.277344 C 161.796875 103.816406 161.675781 103.355469 161.554688 102.871094 C 149.976562 104.757812 138.835938 108.25 127.996094 112.828125 C 139.316406 109.996094 150.617188 107.128906 161.917969 104.277344 Z M 136.75 159.679688 C 144.015625 165.761719 152.804688 167.726562 161.316406 168.128906 C 153.609375 165.460938 145.179688 162.570312 136.75 159.679688 Z M 160.128906 94.5 C 160.152344 93.980469 160.152344 93.476562 160.171875 92.957031 C 149.933594 92.957031 139.699219 92.957031 129.464844 92.957031 C 129.464844 93.015625 129.464844 93.078125 129.464844 93.136719 C 139.679688 93.597656 149.914062 94.039062 160.128906 94.5 Z M 160.128906 94.5 " fill-opacity="1" fill-rule="nonzero"/><path fill="#ffffff" d="M 72.964844 336.644531 C 88.097656 352.398438 88.460938 352.699219 93.496094 352.679688 C 92.273438 351.335938 91.46875 350.273438 90.507812 349.390625 C 77.582031 337.6875 68.75 323.613281 66.101562 306.191406 C 63.773438 290.996094 67.265625 276.722656 74.269531 263.253906 C 76.476562 259.019531 79.085938 255.003906 81.957031 250.109375 C 83.542969 257.535156 84.464844 264.078125 86.371094 270.320312 C 91.648438 287.703125 97.390625 304.949219 102.789062 322.308594 C 104.457031 327.710938 105.660156 333.25 106.902344 338.75 C 107.105469 339.671875 106.785156 341.378906 106.140625 341.761719 C 99.859375 345.476562 96.40625 350.894531 95.625 358.582031 C 77.300781 358.621094 58.816406 361.414062 41.394531 353.585938 C 41.375 353.042969 41.332031 352.5 41.3125 351.9375 C 43.640625 351.277344 45.96875 350.574219 48.316406 349.992188 C 51.929688 349.085938 55.605469 348.40625 59.175781 347.339844 C 65.035156 345.613281 69.832031 342.34375 72.964844 336.644531 Z M 72.964844 336.644531 " fill-opacity="1" fill-rule="nonzero"/><path fill="#ffffff" d="M 211.851562 35.628906 C 205.890625 32.996094 200.292969 30.527344 193.871094 27.679688 C 199.128906 23.464844 203.824219 19.226562 209.003906 15.675781 C 214.542969 11.882812 220.582031 8.789062 226.34375 5.316406 C 229.613281 3.328125 231.402344 4.816406 232.164062 7.867188 C 233.46875 13.105469 234.753906 18.40625 235.574219 23.746094 C 236.980469 32.898438 237.882812 42.132812 236.597656 51.503906 C 229.59375 46.726562 222.769531 42.089844 215.425781 37.09375 C 217.550781 32.316406 219.4375 27.257812 222.007812 22.539062 C 224.558594 17.863281 227.769531 13.527344 230.378906 8.828125 C 221.828125 16.015625 216.730469 25.589844 211.851562 35.628906 Z M 211.851562 35.628906 " fill-opacity="1" fill-rule="nonzero"/><path fill="#000000" d="M 150.980469 71.941406 C 147.726562 73.246094 144.777344 74.429688 141.828125 75.613281 C 141.585938 75.191406 141.34375 74.769531 141.082031 74.347656 C 142.429688 73.105469 143.652344 71.679688 145.15625 70.65625 C 151.097656 66.558594 157.5625 63.808594 164.808594 66.019531 C 167.976562 66.980469 171.089844 69.027344 173.519531 71.335938 C 178.433594 75.996094 176.289062 80.589844 171.871094 83.722656 C 167.335938 86.953125 162.097656 87.65625 156.71875 85.929688 C 151.378906 84.203125 149.191406 79.023438 150.980469 71.941406 Z M 150.980469 71.941406 " fill-opacity="1" fill-rule="nonzero"/><path fill="#000000" d="M 103.550781 67.464844 C 102.808594 63.691406 101.625 59.9375 101.382812 56.121094 C 100.722656 45.464844 102.226562 34.984375 105.015625 24.707031 C 106.5625 18.988281 108.75 18.382812 113.347656 22.097656 C 120.472656 27.878906 125.75 35.125 129.964844 43.234375 C 133.957031 50.902344 129.324219 56.582031 122.015625 59.496094 C 123.742188 57.164062 125.167969 55.257812 127.035156 52.769531 C 116.476562 53.773438 111.300781 61.460938 105.058594 67.5625 C 104.554688 67.542969 104.054688 67.503906 103.550781 67.464844 Z M 127.617188 49.035156 C 123.804688 37.894531 117.679688 29.023438 108.671875 21.273438 C 104.816406 35.6875 103.710938 49.476562 105.457031 64.191406 C 110.71875 55.460938 117.5 50.21875 127.617188 49.035156 Z M 127.617188 49.035156 " fill-opacity="1" fill-rule="nonzero"/><path fill="#000000" d="M 235.597656 68.347656 C 234.511719 67.984375 233.429688 67.644531 232.363281 67.261719 C 231.261719 66.859375 230.195312 66.417969 228.429688 65.738281 C 230.636719 70.132812 230.175781 73.867188 227.789062 77.320312 C 225.761719 80.25 222.890625 81.574219 219.359375 80.972656 C 216.148438 80.410156 214.523438 78.023438 213.519531 75.171875 C 212.054688 71.015625 212.957031 67.300781 215.96875 64.191406 C 219.558594 60.476562 224.054688 60.820312 228.449219 62.023438 C 231.621094 62.886719 234.492188 64.53125 235.597656 68.347656 Z M 235.597656 68.347656 " fill-opacity="1" fill-rule="nonzero"/><path fill="#000000" d="M 215.765625 108.210938 C 210.46875 111.863281 208.339844 111.222656 202.640625 105.28125 C 198.6875 109.976562 194.410156 114.3125 187.464844 112.488281 C 186.203125 112.144531 185.199219 110.78125 184.316406 109.335938 C 191.097656 111.363281 195.636719 108.414062 199.328125 103.65625 C 203.160156 98.695312 201.074219 92.714844 195.195312 90.789062 C 194.050781 90.40625 192.707031 89.183594 192.464844 88.117188 C 192.304688 87.394531 193.769531 85.527344 194.671875 85.429688 C 198.765625 84.925781 202.980469 84.34375 207.054688 84.765625 C 210.546875 85.128906 211.230469 88.160156 208.359375 90.347656 C 205.027344 92.894531 204.246094 95.945312 204.648438 99.800781 C 205.128906 104.457031 208.039062 107.148438 212.695312 107.148438 C 213.738281 107.1875 214.742188 107.851562 215.765625 108.210938 Z M 195.515625 86.59375 C 195.65625 86.832031 195.796875 87.09375 195.9375 87.335938 C 198.304688 88.640625 200.691406 89.925781 202.839844 91.109375 C 203.824219 89.722656 205.027344 88.078125 206.632812 85.851562 C 202.679688 86.109375 199.109375 86.351562 195.515625 86.59375 Z M 195.515625 86.59375 " fill-opacity="1" fill-rule="nonzero"/><path fill="#000000" d="M 116.515625 105.339844 C 130.949219 101.328125 145.601562 98.878906 160.550781 98.375 C 160.613281 98.71875 160.652344 99.078125 160.710938 99.417969 C 146 101.386719 131.25 103.355469 116.515625 105.339844 Z M 116.515625 105.339844 " fill-opacity="1" fill-rule="nonzero"/><path fill="#000000" d="M 219.480469 141.414062 C 209.242188 148.917969 197.363281 149.28125 185.238281 148.476562 C 191.019531 147.753906 196.878906 147.375 202.558594 146.191406 C 208.28125 145.027344 213.839844 143.058594 219.480469 141.414062 Z M 219.480469 141.414062 " fill-opacity="1" fill-rule="nonzero"/><path fill="#000000" d="M 161.917969 104.277344 C 150.617188 107.128906 139.316406 109.996094 128.019531 112.847656 C 138.855469 108.273438 149.996094 104.777344 161.574219 102.890625 C 161.695312 103.355469 161.816406 103.816406 161.917969 104.277344 Z M 161.917969 104.277344 " fill-opacity="1" fill-rule="nonzero"/><path fill="#000000" d="M 136.75 159.679688 C 145.179688 162.570312 153.609375 165.480469 161.316406 168.128906 C 152.804688 167.726562 144.015625 165.761719 136.75 159.679688 Z M 136.75 159.679688 " fill-opacity="1" fill-rule="nonzero"/><path fill="#000000" d="M 160.128906 94.5 C 149.914062 94.039062 139.679688 93.597656 129.464844 93.136719 C 129.464844 93.078125 129.464844 93.015625 129.464844 92.957031 C 139.699219 92.957031 149.933594 92.957031 160.171875 92.957031 C 160.152344 93.476562 160.152344 93.980469 160.128906 94.5 Z M 160.128906 94.5 " fill-opacity="1" fill-rule="nonzero"/><path fill="#ffffff" d="M 127.617188 49.035156 C 117.5 50.21875 110.71875 55.460938 105.457031 64.210938 C 103.710938 49.496094 104.816406 35.707031 108.671875 21.296875 C 117.703125 29.023438 123.824219 37.894531 127.617188 49.035156 Z M 127.617188 49.035156 " fill-opacity="1" fill-rule="nonzero"/><path fill="#ffffff" d="M 195.515625 86.59375 C 199.085938 86.351562 202.660156 86.109375 206.632812 85.851562 C 205.027344 88.078125 203.84375 89.746094 202.839844 91.109375 C 200.671875 89.925781 198.304688 88.640625 195.9375 87.335938 C 195.796875 87.09375 195.65625 86.855469 195.515625 86.59375 Z M 195.515625 86.59375 " fill-opacity="1" fill-rule="nonzero"/></svg>